<?xml version="1.0" encoding="utf-8"?>
<!-- Generator: Adobe Illustrator 18.0.0, SVG Export Plug-In . SVG Version: 6.00 Build 0)  -->
<!DOCTYPE svg PUBLIC "-//W3C//DTD SVG 1.1//EN" "http://www.w3.org/Graphics/SVG/1.1/DTD/svg11.dtd">
<svg version="1.1" xmlns="http://www.w3.org/2000/svg" xmlns:xlink="http://www.w3.org/1999/xlink" x="0px" y="0px"
	 viewBox="0 0 237.3 303.4" enable-background="new 0 0 237.3 303.4" xml:space="preserve">
<g id="Calque_5" display="none">
	<rect x="-23.8" y="-7.9" display="inline" fill="#878787" width="287.1" height="347.3"/>
</g>
<g id="Calque_8_-_copie_3">
	<g id="Calque_3_-_copie_4">
		<g>
			<path fill="#29235C" d="M21.7,300.3c-10.5,0-19.1-8.6-19.1-19.1V21.4c0-10.5,8.6-19.1,19.1-19.1h194.5c10.5,0,19.1,8.6,19.1,19.1
				v259.9c0,10.5-8.6,19.1-19.1,19.1H21.7z"/>
			<path fill="#FFFFFF" d="M216.1,4.3c9.4,0,17.1,7.6,17.1,17.1v259.9c0,9.4-7.6,17.1-17.1,17.1H21.7c-9.4,0-17.1-7.6-17.1-17.1
				V21.4c0-9.4,7.6-17.1,17.1-17.1H216.1 M216.1,0.3H21.7C10.1,0.3,0.6,9.8,0.6,21.4v259.9c0,11.6,9.5,21.1,21.1,21.1h194.5
				c11.6,0,21.1-9.5,21.1-21.1V21.4C237.2,9.8,227.8,0.3,216.1,0.3L216.1,0.3z"/>
		</g>
		<path fill="#FFFFFF" d="M212.8,210.9H25c-7.1,0-12.9-5.8-12.9-12.9V26.1c0-7.1,5.8-12.9,12.9-12.9h187.7c7.1,0,12.9,5.8,12.9,12.9
			V198C225.7,205.2,219.9,210.9,212.8,210.9z"/>
	</g>
	<g id="Calque_2_-_copie_4">
		<g>
			<path fill="#FFFFFF" d="M66.7,258.2l-6.9,12.2c-1,1.8-2.2,4-3.2,6.1h-0.1c-0.3-2.2-0.7-4.3-1-6.1l-2.6-12.2H49l5.6,26h1.2
				l14.7-26H66.7z"/>
			<path fill="#FFFFFF" d="M67.4,278.3c0,3.9,2.8,6,5.7,6c2.5,0,4.9-1,6.5-3.9l0.1,0l-0.4,3.4h3l3.2-18c-1.2-0.2-3-0.4-5.2-0.4
				C74.1,265.5,67.4,270.2,67.4,278.3z M80.5,273.6c-0.9,4.7-4.1,7.6-6.5,7.6c-1.7,0-2.9-1-2.9-3.2c0-5.5,4.4-9.6,8.9-9.6
				c0.6,0,1.1,0,1.4,0.1L80.5,273.6z"/>
			<path fill="#FFFFFF" d="M96.3,255.2h-3.7l-4.2,23.6c-0.1,0.5-0.1,0.9-0.1,1.4c0,2.7,1.6,4.1,3.1,4.3l2.3-2.3
				c-1-0.2-1.8-1-1.8-2.3c0-0.2,0-0.4,0.1-0.6L96.3,255.2z"/>
			<path fill="#FFFFFF" d="M116.6,265.6c-0.6-0.1-1.4-0.1-2.6-0.1c-5.9,0-12.4,4.7-12.4,12c0,4.4,2.9,6.7,5.8,6.7
				c2.9,0,5.4-1,6.9-3.9l0.1,0l-0.4,3.4h3l5.1-28.6h-3.7L116.6,265.6z M115.2,273.6c-0.9,4.7-4.1,7.6-6.5,7.6c-2,0-3.3-1.3-3.3-3.8
				c0-5.1,4.3-9,8.4-9c1,0,1.8,0,2.4,0.2L115.2,273.6z"/>
			<path fill="#FFFFFF" d="M134,265.2c-5.2,0-11.3,4.7-11.3,11.3c0,5,3.3,7.8,8,7.8c1.7,0,3.5-0.4,4.7-1.2l0.9-3.9
				c-1.5,1.2-3.4,2-5.3,2c-2.7,0-4.2-1.4-4.4-3.5c7.1,0,12.7-2.9,12.7-7.9C139.2,267,137.4,265.2,134,265.2z M126.7,274.7
				c0.7-4.1,4.5-6.3,7-6.3c1.5,0,1.9,0.8,1.9,1.8C135.6,272.3,131.8,274.7,126.7,274.7z"/>
			<polygon fill="#FFFFFF" points="153.1,258.2 149.2,258.2 144.7,283.8 159.9,283.8 160.4,280.7 149.2,280.7 			"/>
			<path fill="#FFFFFF" d="M174.1,265.2c-6,0-11.2,5.2-11.2,11.6c0,4.7,3.1,7.4,7.4,7.4c6,0,11.2-5.1,11.2-11.6
				C181.6,268,178.5,265.2,174.1,265.2z M170.8,281c-2.5,0-4.1-1.5-4.1-4.6c0-4.3,3.5-8.1,7.1-8.1c2.5,0,4.1,1.5,4.1,4.6
				C177.9,277.4,174.3,281,170.8,281z"/>
			<path fill="#FFFFFF" d="M190.7,257.7c-0.8,0-2.7,1.6-2.7,2.4c0,0.7,1.1,2,1.9,2c0.8,0,2.7-1.6,2.7-2.4
				C192.6,259,191.5,257.7,190.7,257.7z"/>
			<polygon fill="#FFFFFF" points="184.3,283.8 187.9,283.8 191.2,265.6 187.5,265.6 			"/>
			<path fill="#FFFFFF" d="M199.2,270.6L199.2,270.6l0.6-5h-3l-3.2,18.2h3.6l0.9-5.3c1.1-6.5,5.1-10.1,8.2-10.1c0.2,0,0.6,0,0.8,0
				l-0.7-3.1C203.1,265.4,200.4,267.2,199.2,270.6z"/>
			<path fill="#FFFFFF" d="M223.8,269.6c0-2.6-1.8-4.5-5.2-4.5c-5.2,0-11.3,4.7-11.3,11.3c0,5,3.3,7.8,8,7.8c1.7,0,3.5-0.4,4.7-1.2
				l0.9-3.9c-1.5,1.2-3.4,2-5.3,2c-2.7,0-4.2-1.4-4.4-3.5C218.2,277.6,223.8,274.7,223.8,269.6z M211.3,274.7c0.7-4.1,4.5-6.3,7-6.3
				c1.5,0,1.9,0.8,1.9,1.8C220.2,272.3,216.3,274.7,211.3,274.7z"/>
		</g>
		<g>
			<path fill="#FFFFFF" d="M76.7,236.1c0,7.7,6.4,11.6,12,11.6c3.3,0,5.1-0.5,6.7-1.3l0.8-3.8c-1.9,1-4.4,1.7-6.7,1.7
				c-4.5,0-8.9-3-8.9-8.3c0-6.3,5.1-11.7,12.7-11.7c2,0,4.3,0.3,5.6,1l0.7-3.4c-1.3-0.6-3.7-1-6.1-1C83.2,221,76.7,227.8,76.7,236.1
				z"/>
			<path fill="#FFFFFF" d="M111.2,228.5c-5.3,0-11.4,4.7-11.4,11.4c0,5.1,3.4,7.8,8,7.8c1.7,0,3.5-0.4,4.7-1.3l0.9-4
				c-1.5,1.3-3.4,2-5.4,2c-2.7,0-4.2-1.5-4.4-3.5c7.1,0,12.8-2.9,12.8-8C116.5,230.4,114.6,228.5,111.2,228.5z M103.9,238.1
				c0.7-4.1,4.5-6.3,7-6.3c1.5,0,1.9,0.8,1.9,1.8C112.8,235.7,108.9,238.1,103.9,238.1z"/>
			<path fill="#FFFFFF" d="M130.7,228.5c-3.6,0-5.4,1.6-7,3.9l-0.1,0l0.4-3.4h-3l-3.2,18.3h3.7l1.1-6.4c1.3-7.1,4.7-9.3,7.5-9.3
				c1.5,0,2.1,1.1,2.1,2.2c0,0.2,0,0.4,0,0.6l-2.3,12.9h3.7l2.3-12.8c0-0.3,0.1-0.6,0.1-0.9C135.9,230.5,133.3,228.5,130.7,228.5z"
				/>
			<path fill="#FFFFFF" d="M147.6,223.4l-4,1.9L143,229h-3.6l-0.5,2.7h3.6l-1.8,10.1c-0.6,3.4,1.5,5.6,4.2,5.6c1,0,1.7-0.2,2.2-0.5
				l0.7-3.2c-0.6,0.5-1,0.6-1.7,0.6c-1.1,0-2-0.8-1.8-2.3l1.8-10.4h5.8l0.6-2.7h-5.9L147.6,223.4z"/>
			<path fill="#FFFFFF" d="M158.3,234L158.3,234l0.6-5.1h-3l-3.2,18.3h3.6l0.9-5.3c1.1-6.5,5.2-10.2,8.3-10.2c0.2,0,0.6,0,0.8,0
				l-0.7-3.1C162.2,228.7,159.4,230.6,158.3,234z"/>
			<path fill="#FFFFFF" d="M177.7,228.5c-5.3,0-11.4,4.7-11.4,11.4c0,5.1,3.4,7.8,8,7.8c1.7,0,3.5-0.4,4.7-1.3l0.9-4
				c-1.5,1.3-3.4,2-5.4,2c-2.7,0-4.2-1.5-4.4-3.5c7.1,0,12.8-2.9,12.8-8C183,230.4,181.1,228.5,177.7,228.5z M170.4,238.1
				c0.7-4.1,4.5-6.3,7-6.3c1.5,0,1.9,0.8,1.9,1.8C179.3,235.7,175.5,238.1,170.4,238.1z"/>
			<polygon fill="#FFFFFF" points="186,237.9 185.5,240.9 195.6,240.9 196.1,237.9 			"/>
		</g>
		<g>
			<path fill="#FFFFFF" d="M27.9,275.1l-6.1,3.3v2.2l6.1,1.1v2.1l-14-2.5v-4.4c0-2,1.4-3.6,3.5-3.6c2,0,3.5,1.3,4.1,3.1l6.4-3.6
				V275.1z M15.6,277.5v2l4.5,0.8v-2c0-1.6-1.2-2.9-2.7-2.9C16.3,275.4,15.6,276.4,15.6,277.5z"/>
			<path fill="#FFFFFF" d="M16.3,265.7l-0.9,0.8c-0.4-1.2-1-2.9-2-4l1.5-0.1C15.7,263.5,16,264.4,16.3,265.7z M24.5,269.3
				c1.1-0.1,1.9-0.9,1.9-2.4c0-1.1-0.4-2.1-1.1-2.9l2.1,0.5c0.4,0.7,0.7,1.6,0.7,2.6c0,2.5-1.5,4.3-4.2,4.3c-3.6,0-6.2-3.3-6.2-6.2
				c0-1.8,1-2.9,2.4-2.9C22.9,262.3,24.5,265.4,24.5,269.3z M19.5,265.3c0,1.4,1.2,3.4,3.4,3.8c0-2.8-1.3-4.8-2.5-4.8
				C19.9,264.3,19.5,264.5,19.5,265.3z"/>
			<path fill="#FFFFFF" d="M19.5,253.1c0.2-0.1,0.6-0.3,1.1-0.3c2.1,0,3.9,1.7,3.9,4.3c0,0.8,0.1,1.4,0.6,1.4c0.1,0,0.2-0.1,0.3-0.2
				l0.9-2.6c0.5-1.3,1.4-2.3,2.8-2.3c2.3,0,3.9,2.2,3.9,5.2c0,2.3-1.5,3.9-3.2,3.9c-1.8,0-3-1.2-3.4-2.8l-1,1
				c-0.7-0.2-1.3-0.8-1.6-1.4c-0.5,0.7-1.3,1.1-2.2,1.1c-2.3,0-3.8-1.9-3.8-4.3c0-0.5,0.1-0.9,0.2-1.3c0.1-0.3,0.1-0.8,0.1-1.3
				c0-0.5-0.2-1.1-0.4-1.3l1.5-0.4C19.4,252.2,19.5,252.8,19.5,253.1z M19.4,256.4c0,1.2,1,2.2,2,2.2c0.8,0,1.4-0.7,1.4-1.6
				c0-1.1-0.9-2.2-2-2.2C20.1,254.7,19.4,255.4,19.4,256.4z M27.9,256.8l-0.4,1.5c0,1.3,1,2.5,2.1,2.5c0.9,0,1.8-0.9,1.8-2.2
				c0-2-1.1-3-2.1-3C28.7,255.6,28.1,256,27.9,256.8z"/>
			<path fill="#FFFFFF" d="M16.1,248c0,0.4-0.7,1.1-1.1,1.1c-0.5,0-1.3-1.1-1.3-1.5c0-0.4,0.7-1.1,1.1-1.1
				C15.2,246.5,16.1,247.5,16.1,248z M27.9,249.1v2l-9.9-1.8v-2L27.9,249.1z"/>
			<path fill="#FFFFFF" d="M28.2,241.8c0,2.4-1.5,4.1-4.1,4.1c-3.5,0-6.4-2.9-6.4-6.1c0-2.4,1.5-4.1,4.1-4.1
				C25.4,235.7,28.2,238.5,28.2,241.8z M19.5,239.9c0,2,2,3.9,4.4,3.9c1.7,0,2.5-0.9,2.5-2.2c0-1.9-2-3.9-4.4-3.9
				C20.3,237.7,19.5,238.6,19.5,239.9z"/>
			<path fill="#FFFFFF" d="M21,224.8l7,1.2v2l-7-1.2c-0.1,0-0.2,0-0.3,0c-0.6,0-1.2,0.4-1.2,1.2c0,1.5,1.2,3.4,5,4.1l3.5,0.6v2
				l-9.9-1.8v-1.6l1.9,0.2l0,0c-1.3-0.9-2.1-1.9-2.1-3.8c0-1.4,1.1-2.8,2.7-2.8C20.6,224.8,20.8,224.8,21,224.8z"/>
		</g>
		<rect x="38.7" y="223.5" fill="#FFFFFF" width="1.5" height="64.2"/>
	</g>
	<g id="Calque_1_-_copie_4">
		<path fill="#13A538" d="M142,132.2c-3.9,0-7.9-0.2-11.7-0.6c-8.9-0.8-17.7-2.3-26.2-3.8c-6.9-1.2-13.6-2.3-20.3-3.1
			c9.4,9.7,18.6,19.6,25.6,31.3c1.7,2.8,0.5,5.5-1.5,6.9l6.5,7.7c11.1-13,23.7-24.8,35.5-37.3c0.5-0.5,1-1.1,1.5-1.7
			C148.3,132.1,145.1,132.2,142,132.2z"/>
		<g>
			<path fill="#29235C" d="M67.8,108.3c-6.4-6.9-12.4-14.2-17.4-22.4c-8.4-13.8-12.8-33.7,0-46.2c13.6-13.4,39.7-5.2,46,11.6
				c2.4,6.5,12.8,3.7,10.4-2.9c-6.4-17.2-23.1-26.8-41.2-25.8c-20,1.1-33,16.7-34,35.9c-1,19.9,8.9,36.1,21.9,51
				C58.1,108.8,62.8,108.4,67.8,108.3z"/>
			<path fill="#29235C" d="M83.8,124.8c-5.7-0.7-11.3-1.1-16.9-1.1c12.4,12.5,25.3,24.6,33.2,37.9c3.6,6,12.9,0.6,9.3-5.4
				C102.4,144.4,93.2,134.5,83.8,124.8z"/>
		</g>
		<g>
			<path fill="#29235C" d="M151.4,131.8c-0.5,0.6-1,1.1-1.6,1.7c-16.1,17-33.5,32.6-46.9,52c-4,5.7,5.4,11.2,9.3,5.5
				c15.8-22.8,37.5-40.5,55.5-61.4C162.4,130.6,157,131.4,151.4,131.8z"/>
			<path fill="#29235C" d="M126.1,112c6.9-0.5,7-11.3,0-10.8c-13.9,1.1-24.8-11.2-18.9-24.9c4.3-10,17-17,26.3-21.4
				c9.9-4.7,21.4-6.5,32.3-5.9c15.4,0.8,21.2,12.6,19,26.6C183,86.7,178.2,97,172,106.5c5.5-2.1,10.9-4.5,16.4-7.5
				c9.3-19.5,13.7-43.5-5.6-56.1c-10.6-6.8-25.6-5.3-37.3-3.1c-13.9,2.6-26.6,9.7-37.3,18.8c-10.7,9.1-16,21.5-11.6,35.2
				C100.4,106.1,113.8,113,126.1,112z"/>
		</g>
		<path fill="#90D4F6" d="M205.4,131c-9.9-0.1-19.4,1.1-28.9,3.8c-4.4,1.2-5.5,5.3-4.4,8.7c-4.4,2.1-8.8,4.2-13.2,6.6
			c-4.7,2.5-4.1,7.8-0.9,10.7c-1.8,0.6-3.5,1.3-5.3,1.9c-4.3,1.6-5.7,6.2-4.2,9.6l-14.1,1.9c-5.6,0.8-6.8,10.2-1.6,12.4
			c0.8,0.3,1.6,0.7,2.4,1c2.7,1.2,5.4,0.5,7.3-0.9c19.3-2.6,38.6-5.2,57.9-7.8c8.2-1.1,5.1-12.5-1.8-13.3c-3.7-0.4-7.4-0.8-11.1-1.2
			c3.6-1.3,7.2-2.6,10.9-4c6.7-2.4,6.1-11.1,0-13c2.9-1.1,5.9-2.1,8.9-3C214.4,142,213.2,131.1,205.4,131z"/>
		<path fill="#90D4F6" d="M94.3,174.7c-2.1-1.3-4.2-2.2-6.2-2.8c5-3.8,1.6-11.5-4.4-12c-0.5,0-0.9-0.1-1.4-0.1
			c1.3-1.1,2.6-2.1,4-3.2c4.4-3.5,1-12.3-4.8-11.6c-7.2,0.9-14.4,1.8-21.7,2.8c-8.4,1.1-8.7,14-0.6,13.6c-2.3,3-0.7,7,2.3,9.1
			c-3,1.4-6,2.9-9,4.3c-4.9,2.2-4,7.9-0.8,10.8c-4.4,1.3-8.7,2.7-13.1,4c-8.3,2.6-4.8,15.7,3.6,13.1c16.8-5.2,33.7-10.4,50.5-15.5
			C98.4,185.4,99.4,177.9,94.3,174.7z"/>
		<path fill="#009FE3" d="M124.6,112.1c-11.9,0.3-24.3-6.4-28.1-18.3c-4.4-13.8,0.9-26.1,11.6-35.2l-4-4c-2.7,1.1-6.4,0.3-7.7-3.2
			c-6.2-16.8-32.3-25-46-11.6c-12.8,12.5-8.4,32.4,0,46.2c5,8.1,11,15.4,17.4,22.4c0.7,0,1.4,0,2,0c10.9,0,22,1.5,31.4,3
			c8.9,1.4,17.1,2.2,24.7,2.4L124.6,112.1z"/>
		<path fill="#F4CE2F" d="M126.1,101.2c6.9-0.5,6.9,10.3,0,10.8c-0.5,0-1,0-1.5,0.1c0,0,0,0,0.1,0l1.4,1.6c1.4,0,2.8,0.1,4.2,0.1
			c1.8,0,3.6,0,5.4-0.1c0.4,0,0.9-0.1,1.3-0.1c1.3-0.1,2.7-0.1,4-0.2c0.4,0,0.9-0.1,1.3-0.1c1.3-0.1,2.7-0.3,4-0.4
			c0.4,0,0.7-0.1,1.1-0.2c1.4-0.2,2.8-0.4,4.1-0.6c0.3,0,0.6-0.1,0.9-0.2c1.5-0.3,2.9-0.5,4.3-0.9c0.2,0,0.4-0.1,0.6-0.1
			c1.5-0.3,3-0.7,4.5-1.1c0.1,0,0.2-0.1,0.4-0.1c1.6-0.4,3.2-0.9,4.7-1.4c0.1,0,0.1,0,0.2-0.1c1.6-0.5,3.3-1.1,4.9-1.7
			c6.2-9.5,11-19.8,12.8-30.9c2.2-14-3.6-25.8-19-26.6c-9.5-0.5-19.4,0.8-28.4,4.2l-7.3,3.4c-8.8,4.4-19.1,10.9-22.9,19.7
			C101.3,90,112.2,102.3,126.1,101.2z"/>
		<path fill="#90D4F6" d="M130.5,129.2c3.7,0.4,7.6,0.5,11.5,0.5c26.3,0,54.8-8.4,72.7-29c4-4.6,0.4-12.2-4.3-12.2c-1,0-2,0.3-3,1.1
			c-25.8,19-49.9,26.5-77.1,26.5c-9.3,0-19-0.9-29.3-2.5c-10.5-1.6-20.9-3-31-3c-18.2,0-35.7,4.2-51.4,18.5
			c-2.1,1.9-0.2,5.4,2.1,5.4c0.4,0,0.9-0.1,1.3-0.4c14.8-9.9,29.8-13,44.8-13C87.6,121.2,108.7,127.1,130.5,129.2z"/>
	</g>
	<g id="Calque_6">
	</g>
</g>
</svg>
